<?xml version="1.0" encoding="UTF-8"?>
<svg width="24px" height="24px" viewBox="0 0 24 24" version="1.1" xmlns="http://www.w3.org/2000/svg" xmlns:xlink="http://www.w3.org/1999/xlink">
    <!-- Generator: Sketch 48.2 (47327) - http://www.bohemiancoding.com/sketch -->
    <title>文件-关闭</title>
    <desc>Created with Sketch.</desc>
    <defs></defs>
    <g id="Symbols" stroke="none" stroke-width="1" fill="none" fill-rule="evenodd">
        <g id="文件-关闭">
            <rect id="box" x="0" y="0" width="24" height="24"></rect>
            <path d="M6,10 L18,10 L18,17.7 C18,17.8656854 17.8656854,18 17.7,18 L6.3,18 C6.13431458,18 6,17.8656854 6,17.7 L6,10 Z M6,9 L6,6.3 C6,6.13431458 6.13431458,6 6.3,6 L9.92917961,6 C9.97575314,6 10.0216871,6.01084353 10.0633437,6.03167184 L12,7 L17.7,7 C17.8656854,7 18,7.13431458 18,7.3 L18,9 L6,9 Z" id="Combined-Shape" fill="#C3C3C3" fill-rule="nonzero"></path>
        </g>
    </g>
</svg>