<?xml version="1.0" standalone="no"?><!DOCTYPE svg PUBLIC "-//W3C//DTD SVG 1.1//EN" "http://www.w3.org/Graphics/SVG/1.1/DTD/svg11.dtd"><svg t="1562919787782" class="icon" viewBox="0 0 1024 1024" version="1.1" xmlns="http://www.w3.org/2000/svg" p-id="2263" width="16" height="16" xmlns:xlink="http://www.w3.org/1999/xlink"><defs><style type="text/css"></style></defs><path d="M802.611388 448.802879a43.350032 43.350032 0 0 0-43.350032 43.350031v249.385508h-473.310097L406.500473 620.989205a43.350032 43.350032 0 0 0-61.30417-61.311395l-192.112891 192.105666c-9.089057 9.096282-13.13506 21.205391-12.463134 33.112199-0.671925 11.899584 3.366852 24.015918 12.463134 33.112199l192.112891 192.105666c8.467706 8.460481 19.558089 12.694334 30.655697 12.694334s22.187991-4.233853 30.655698-12.701559a43.350032 43.350032 0 0 0 0-61.30417l-120.556439-120.556438h516.660129a43.350032 43.350032 0 0 0 43.350032-43.350032c0-0.932026-0.079475-1.842376-0.137275-2.759952 0.0578-0.917576 0.137275-1.827926 0.137275-2.759952V492.15291a43.350032 43.350032 0 0 0-43.350032-43.350031z" fill="#e6e6e6" p-id="2264"></path><path d="M883.495322 240.787751c0.671925-11.892359-3.374077-24.001468-12.463134-33.090524l-192.112891-192.112891a43.342807 43.342807 0 0 0-61.296945 0 43.335582 43.335582 0 0 0 0 61.30417l120.556439 120.556439H221.504212a43.350032 43.350032 0 0 0-43.350032 43.350031c0 0.932026 0.079475 1.842376 0.137276 2.759952-0.0578 0.917576-0.137275 1.827926-0.137276 2.759952v287.215636a43.350032 43.350032 0 0 0 86.700064 0V284.137783h473.317322L617.615127 404.686996a43.342807 43.342807 0 1 0 61.296945 61.30417l192.112891-192.105665c9.096282-9.089057 13.142285-21.198166 12.470359-33.09775z" fill="#e6e6e6" p-id="2265"></path></svg>