
<svg xmlns="http://www.w3.org/2000/svg" version="1.1" xmlns:xlink="http://www.w3.org/1999/xlink" preserveAspectRatio="none" x="0px" y="0px" width="510px" height="150px" viewBox="0 0 510 150">
<defs>
<g id="logo_draft_outlines_ai_0_Layer2_0_MEMBER_0_FILL">
<path fill="#EE6630" stroke="none" d="
M 64.6 43.3
L 15.2 106.95 96 118.05 64.6 43.3 Z"/>
</g>

<g id="logo_draft_outlines_ai_0_Layer2_0_MEMBER_1_FILL">
<path fill="#E67743" stroke="none" d="
M 64.6 43.3
L 4.65 34.3 15.2 106.95 64.6 43.3 Z"/>
</g>

<g id="logo_draft_outlines_ai_0_Layer2_0_MEMBER_2_FILL">
<path fill="#F9B47E" stroke="none" d="
M 64.6 43.3
L 76.15 0 4.65 34.3 64.6 43.3 Z"/>
</g>

<g id="logo_draft_outlines_ai_0_Layer2_0_MEMBER_3_FILL">
<path fill="#FEDDAE" stroke="none" d="
M 76.15 0
L 64.6 43.3 132.6 50.15 76.15 0 Z"/>
</g>

<g id="logo_draft_outlines_ai_0_Layer2_0_MEMBER_4_FILL">
<path fill="#F6A176" stroke="none" d="
M 132.6 50.15
L 64.6 43.3 96 118.05 132.6 50.15 Z"/>
</g>

<g id="logo_draft_outlines_ai_0_Layer2_0_MEMBER_5_FILL">
<path fill="#EE6630" stroke="none" d="
M 96 118.05
L 122.65 115.55 132.6 50.15 96 118.05 Z"/>
</g>

<g id="logo_draft_outlines_ai_0_Layer2_0_MEMBER_6_FILL">
<path fill="#F48A59" stroke="none" d="
M 15.2 106.95
L 56.45 148.4 96 118.05 15.2 106.95 Z"/>
</g>

<g id="logo_draft_outlines_ai_0_Layer2_0_MEMBER_7_FILL">
<path fill="#B9592F" stroke="none" d="
M 122.65 115.55
L 96 118.05 56.45 148.4 122.65 115.55 Z"/>
</g>

<g id="logo_draft_outlines_ai_0_Layer2_0_MEMBER_8_FILL">
<path fill="#973725" stroke="none" d="
M 56.45 148.4
L 15.2 106.95 0 98.7 56.45 148.4 Z"/>
</g>

<g id="logo_draft_outlines_ai_0_Layer2_0_MEMBER_9_FILL">
<path fill="#BD572F" stroke="none" d="
M 4.65 34.3
L 0 98.7 15.2 106.95 4.65 34.3 Z"/>
</g>

<g id="logo_draft_outlines_ai_0_Layer1_0_MEMBER_0_FILL">
<path fill="#231F20" stroke="none" d="
M 31 56.15
L 40.45 56.25
Q 41.65 56.4 42.3 57 43.15 57.6 43.5 58.95 43.95 60.3 43.95 62.85
L 43.95 91.5 37.9 97.5 36.3 97.5 36.3 60 31 60 31 102.7 40.2 102.7 49.25 93.55 49.25 60.8
Q 49.25 56.15 47 53.6 44.75 51 41 51
L 31 51 31 56.15 Z"/>
</g>

<g id="logo_draft_outlines_ai_0_Layer1_0_MEMBER_1_FILL">
<path fill="#231F20" stroke="none" d="
M 71.95 57.5
Q 71.95 56.6 71.6 55.1 71.2 53.8 70.3 52.8 69.45 51.85 67.85 51.1 66.15 50.45 63.95 50.45 61.75 50.45 60.1 51.15 58.65 51.75 57.6 52.9 56.7 53.95 56.25 55.25 55.8 56.55 55.8 57.7
L 55.8 66.35 61.45 66.35 61.45 58.3
Q 61.45 57.15 62 56.2 62.5 55.35 63.95 55.35 65.4 55.35 65.85 56.25 66.3 57.15 66.3 58.35
L 66.3 71.3 57.05 81.4 57.05 102.7 73.2 102.7 73.2 97.3 62.35 97.3 62.35 83.7 71.95 73.15 71.95 57.5 Z"/>
</g>

<g id="logo_draft_outlines_ai_0_Layer1_0_MEMBER_2_FILL">
<path fill="#231F20" stroke="none" d="
M 98.5 60.1
Q 98.5 54.65 96.1 52.55 93.8 50.45 89.65 50.45 88.1 50.45 86.35 50.95 84.8 51.45 83.45 52.55 82.15 53.7 81.4 55.5 80.65 57.4 80.65 60.1
L 80.65 93.1
Q 80.65 95.9 81.4 97.75 82.15 99.65 83.45 100.85 84.65 102.05 86.35 102.6 87.85 103.1 89.65 103.1 93.8 103.1 96.1 100.85 98.5 98.55 98.5 93.1
L 98.5 60.1
M 92.05 56.65
Q 92.85 57.65 92.85 60.35
L 92.85 93.25
Q 92.85 95.95 92.05 96.95 91.25 97.95 89.65 97.95 88 97.95 87.15 96.95 86.3 95.85 86.3 93.25
L 86.3 60.35
Q 86.3 57.75 87.15 56.65 88.05 55.6 89.65 55.6 91.25 55.6 92.05 56.65 Z"/>
</g>

<g id="logo_draft_outlines_ai_0_Layer0_0_FILL">
<path fill="#FFFFFF" stroke="none" d="
M 166.15 42.9
Q 169.5 42.9 171.5 44.3 173.5 45.75 173.5 48.25
L 173.5 64 185.55 64 185.55 47.2
Q 185.55 45.3 184.6 43.2 183.6 41 181.4 39.3 179.25 37.6 175.55 36.3 171.9 35.1 166.35 35.1 161.3 35.1 157.45 36.25 153.75 37.4 151.15 39.25 148.65 41.05 147.55 43.2 146.45 45.35 146.45 47.2
L 146.45 69 173.5 87.15 173.5 105.4
Q 173.5 107.75 171.15 109.55 168.85 111.35 165.85 111.35 163.6 111.35 161.05 109.7 158.5 108.05 158.5 105.5
L 158.5 85.5 146.45 85.5 146.45 106.8
Q 146.45 109.05 147.65 111.35 148.85 113.7 151.25 115.55 153.7 117.45 157.25 118.65 160.85 119.85 165.85 119.85 170.7 119.85 174.35 118.65 178.05 117.45 180.5 115.5 183 113.55 184.25 111.25 185.55 109 185.55 106.8
L 185.55 82.8 158.5 64.1 158.5 48.4
Q 158.5 46 160.7 44.4 162.9 42.9 166.15 42.9 Z"/>
</g>

<g id="logo_draft_outlines_ai_0_Layer0_1_FILL">
<path fill="#FFFFFF" stroke="none" d="
M 225.2 44.45
L 238.75 44.45 238.75 36.05 198.45 36.05 198.45 44.45 213.15 44.45 213.15 119.25 225.2 119.25 225.2 44.45 Z"/>
</g>

<g id="logo_draft_outlines_ai_0_Layer0_2_FILL">
<path fill="#FFFFFF" stroke="none" d="
M 264.2 35.95
L 252.15 35.95 252.15 119.05 264.2 119.05 281.8 104.75 281.8 119.05 293.9 119.05 293.9 35.95 281.8 35.95 281.8 92.7 264.2 107.3 264.2 35.95 Z"/>
</g>

<g id="logo_draft_outlines_ai_0_Layer0_3_FILL">
<path fill="#FFFFFF" stroke="none" d="
M 329.6 44.55
Q 331.7 44.55 335.1 44.75 337.55 44.9 339.3 45.9 341.1 46.85 342.05 49.1 343 51.2 343 55.3
L 343 101.35 329.25 111 325.6 111 325.6 52.2 313.5 52.2 313.5 119.25 334.45 119.25 355.1 104.6 355.1 52.1
Q 355.1 44.65 350 40.45 344.85 36.3 336.25 36.3
L 313.5 36.3 313.5 44.55 329.6 44.55 Z"/>
</g>

<g id="logo_draft_outlines_ai_0_Layer0_4_FILL">
<path fill="#FFFFFF" stroke="none" d="
M 386 36.15
L 373.9 36.15 373.9 119.25 386 119.25 386 36.15 Z"/>
</g>

<g id="logo_draft_outlines_ai_0_Layer0_5_FILL">
<path fill="#FFFFFF" stroke="none" d="
M 444.2 39.2
Q 438.8 35.45 429.45 35.45 425.35 35.45 421.85 36.4 418.25 37.3 415.3 39.2 412.4 41.1 410.65 44.15 408.95 47.2 408.95 51.65
L 409.1 95.4 408.95 95.4 408.95 103.8
Q 408.95 108.25 410.65 111.3 412.4 114.45 415.3 116.3 418.25 118.2 421.85 119.1 425.45 120 429.45 120 438.7 120 444.15 116.25 449.6 112.55 449.6 103.8
L 449.6 51.65
Q 449.6 42.9 444.2 39.2
M 423.75 45.6
Q 425.75 43.75 429.45 43.75 433.1 43.75 434.9 45.4 436.75 46.95 436.75 51.3
L 436.75 104.15
Q 436.75 108.5 434.9 110.05 433.1 111.7 429.45 111.7 425.8 111.7 423.75 109.9 421.8 108.1 421.8 103.8
L 421.8 51.65
Q 421.8 47.4 423.75 45.6 Z"/>
</g>

<g id="logo_draft_outlines_ai_0_Layer0_6_FILL">
<path fill="#FFFFFF" stroke="none" d="
M 487.45 42.9
Q 490.75 42.9 492.75 44.3 494.75 45.75 494.75 48.25
L 494.75 64 506.85 64 506.85 47.2
Q 506.85 45.45 505.85 43.2 504.9 41.05 502.7 39.3 500.45 37.55 496.8 36.3 493.15 35.1 487.6 35.1 482.55 35.1 478.7 36.25 474.95 37.4 472.45 39.25 469.95 41.05 468.85 43.2 467.7 45.3 467.7 47.2
L 467.7 69 494.75 87.15 494.75 105.4
Q 494.75 107.75 492.4 109.55 490.1 111.35 487.1 111.35 484.9 111.35 482.35 109.7 479.8 108.05 479.8 105.5
L 479.8 85.5 467.7 85.5 467.7 106.8
Q 467.7 109.05 468.9 111.35 470.1 113.7 472.5 115.55 474.95 117.45 478.5 118.65 482.2 119.85 487.1 119.85 491.95 119.85 495.6 118.65 499.3 117.45 501.75 115.5 504.2 113.55 505.55 111.25 506.85 108.9 506.85 106.8
L 506.85 82.8 479.8 64.1 479.8 48.4
Q 479.8 45.95 481.95 44.4 484.15 42.9 487.45 42.9 Z"/>
</g>
</defs>

<g transform="matrix( 1, 0, 0, 1, 1.6,0.8) ">
<g transform="matrix( 1, 0, 0, 1, 0,0) ">
<use xlink:href="#logo_draft_outlines_ai_0_Layer2_0_MEMBER_0_FILL"/>
</g>

<g transform="matrix( 1, 0, 0, 1, 0,0) ">
<use xlink:href="#logo_draft_outlines_ai_0_Layer2_0_MEMBER_1_FILL"/>
</g>

<g transform="matrix( 1, 0, 0, 1, 0,0) ">
<use xlink:href="#logo_draft_outlines_ai_0_Layer2_0_MEMBER_2_FILL"/>
</g>

<g transform="matrix( 1, 0, 0, 1, 0,0) ">
<use xlink:href="#logo_draft_outlines_ai_0_Layer2_0_MEMBER_3_FILL"/>
</g>

<g transform="matrix( 1, 0, 0, 1, 0,0) ">
<use xlink:href="#logo_draft_outlines_ai_0_Layer2_0_MEMBER_4_FILL"/>
</g>

<g transform="matrix( 1, 0, 0, 1, 0,0) ">
<use xlink:href="#logo_draft_outlines_ai_0_Layer2_0_MEMBER_5_FILL"/>
</g>

<g transform="matrix( 1, 0, 0, 1, 0,0) ">
<use xlink:href="#logo_draft_outlines_ai_0_Layer2_0_MEMBER_6_FILL"/>
</g>

<g transform="matrix( 1, 0, 0, 1, 0,0) ">
<use xlink:href="#logo_draft_outlines_ai_0_Layer2_0_MEMBER_7_FILL"/>
</g>

<g transform="matrix( 1, 0, 0, 1, 0,0) ">
<use xlink:href="#logo_draft_outlines_ai_0_Layer2_0_MEMBER_8_FILL"/>
</g>

<g transform="matrix( 1, 0, 0, 1, 0,0) ">
<use xlink:href="#logo_draft_outlines_ai_0_Layer2_0_MEMBER_9_FILL"/>
</g>

<g transform="matrix( 1, 0, 0, 1, 0,0) ">
<use xlink:href="#logo_draft_outlines_ai_0_Layer1_0_MEMBER_0_FILL"/>
</g>

<g transform="matrix( 1, 0, 0, 1, 0,0) ">
<use xlink:href="#logo_draft_outlines_ai_0_Layer1_0_MEMBER_1_FILL"/>
</g>

<g transform="matrix( 1, 0, 0, 1, 0,0) ">
<use xlink:href="#logo_draft_outlines_ai_0_Layer1_0_MEMBER_2_FILL"/>
</g>

<g transform="matrix( 1, 0, 0, 1, 0,0) ">
<use xlink:href="#logo_draft_outlines_ai_0_Layer0_0_FILL"/>
</g>

<g transform="matrix( 1, 0, 0, 1, 0,0) ">
<use xlink:href="#logo_draft_outlines_ai_0_Layer0_1_FILL"/>
</g>

<g transform="matrix( 1, 0, 0, 1, 0,0) ">
<use xlink:href="#logo_draft_outlines_ai_0_Layer0_2_FILL"/>
</g>

<g transform="matrix( 1, 0, 0, 1, 0,0) ">
<use xlink:href="#logo_draft_outlines_ai_0_Layer0_3_FILL"/>
</g>

<g transform="matrix( 1, 0, 0, 1, 0,0) ">
<use xlink:href="#logo_draft_outlines_ai_0_Layer0_4_FILL"/>
</g>

<g transform="matrix( 1, 0, 0, 1, 0,0) ">
<use xlink:href="#logo_draft_outlines_ai_0_Layer0_5_FILL"/>
</g>

<g transform="matrix( 1, 0, 0, 1, 0,0) ">
<use xlink:href="#logo_draft_outlines_ai_0_Layer0_6_FILL"/>
</g>
</g>
</svg>
